<svg width="1400" height="480" viewBox="0 0 1400 480" fill="none" xmlns="http://www.w3.org/2000/svg">
  <defs>
    <linearGradient id="background" x1="92" y1="24" x2="1310" y2="468" gradientUnits="userSpaceOnUse">
      <stop stop-color="#07111F"/>
      <stop offset="0.52" stop-color="#11182F"/>
      <stop offset="1" stop-color="#21133B"/>
    </linearGradient>
    <linearGradient id="signal" x1="350" y1="82" x2="1040" y2="404" gradientUnits="userSpaceOnUse">
      <stop stop-color="#2DD4BF"/>
      <stop offset="0.5" stop-color="#7C3AED"/>
      <stop offset="1" stop-color="#C084FC"/>
    </linearGradient>
    <radialGradient id="glow" cx="0" cy="0" r="1" gradientUnits="userSpaceOnUse" gradientTransform="translate(700 242) rotate(90) scale(255 560)">
      <stop stop-color="#7C3AED" stop-opacity="0.28"/>
      <stop offset="1" stop-color="#7C3AED" stop-opacity="0"/>
    </radialGradient>
    <filter id="blur" x="-60" y="-60" width="1520" height="600" filterUnits="userSpaceOnUse">
      <feGaussianBlur stdDeviation="26"/>
    </filter>
    <filter id="shadow" x="490" y="74" width="420" height="356" filterUnits="userSpaceOnUse">
      <feDropShadow dx="0" dy="16" stdDeviation="24" flood-color="#050914" flood-opacity="0.65"/>
    </filter>
  </defs>

  <rect width="1400" height="480" rx="36" fill="url(#background)"/>
  <rect x="1" y="1" width="1398" height="478" rx="35" stroke="#94A3B8" stroke-opacity="0.18" stroke-width="2"/>
  <ellipse cx="700" cy="242" rx="560" ry="255" fill="url(#glow)" filter="url(#blur)"/>

  <g opacity="0.48" stroke="url(#signal)" stroke-width="2">
    <path d="M86 103C270 104 320 174 491 188"/>
    <path d="M70 378C254 369 333 304 493 289"/>
    <path d="M1314 102C1130 103 1080 174 909 188"/>
    <path d="M1330 378C1146 369 1067 304 907 289"/>
  </g>

  <g fill="#2DD4BF">
    <circle cx="86" cy="103" r="7"/>
    <circle cx="70" cy="378" r="7"/>
  </g>
  <g fill="#C084FC">
    <circle cx="1314" cy="102" r="7"/>
    <circle cx="1330" cy="378" r="7"/>
  </g>

  <g filter="url(#shadow)">
    <path d="M700 94C598 94 522 154 487 240C522 326 598 386 700 386C802 386 878 326 913 240C878 154 802 94 700 94Z" fill="#0B1222" stroke="url(#signal)" stroke-width="5"/>
    <circle cx="700" cy="240" r="88" fill="#111A31" stroke="url(#signal)" stroke-width="5"/>
    <circle cx="700" cy="240" r="34" fill="url(#signal)"/>
    <circle cx="687" cy="227" r="9" fill="white" fill-opacity="0.82"/>
  </g>

  <text x="120" y="205" fill="#F8FAFC" font-family="Inter, ui-sans-serif, system-ui, -apple-system, sans-serif" font-size="58" font-weight="750" letter-spacing="-1.5">DELX</text>
  <text x="120" y="260" fill="#C4B5FD" font-family="Inter, ui-sans-serif, system-ui, -apple-system, sans-serif" font-size="28" font-weight="650" letter-spacing="4">WITNESS PROTOCOL</text>
  <text x="120" y="312" fill="#94A3B8" font-family="Inter, ui-sans-serif, system-ui, -apple-system, sans-serif" font-size="22">What should survive the failure?</text>

  <text x="1080" y="205" text-anchor="middle" fill="#F8FAFC" font-family="Inter, ui-sans-serif, system-ui, -apple-system, sans-serif" font-size="24" font-weight="650">WITNESS</text>
  <text x="1080" y="244" text-anchor="middle" fill="#A7F3D0" font-family="Inter, ui-sans-serif, system-ui, -apple-system, sans-serif" font-size="24" font-weight="650">RECOVER</text>
  <text x="1080" y="283" text-anchor="middle" fill="#DDD6FE" font-family="Inter, ui-sans-serif, system-ui, -apple-system, sans-serif" font-size="24" font-weight="650">CONTINUE</text>
</svg>
